<svg width="335" height="217" viewBox="0 0 335 217" fill="none" xmlns="http://www.w3.org/2000/svg">
<path fill-rule="evenodd" clip-rule="evenodd" d="M57.2165 1.1909L57.3525 1.43438L57.5188 1.74641C57.6187 1.9386 57.7315 2.16156 57.8541 2.41367C58.2784 3.28662 58.7065 4.27455 59.1168 5.36398C60.2721 8.43035 61.0792 11.7397 61.355 15.1877C61.7291 19.8666 61.0538 24.2821 59.343 28.2992L59.1967 28.6366C57.8071 31.7748 55.7827 34.65 53.1541 37.2295L52.8939 37.4816L53.1152 37.4924C56.9001 37.6516 60.6424 37.3126 63.9328 36.2636C64.6384 36.0385 65.4077 36.1546 66.0156 36.5773C66.6224 36.9995 66.9992 37.6786 67.037 38.4166L67.0456 38.6455L67.051 38.9483V39.065C67.051 39.4871 67.0386 39.9611 67.0084 40.4799C66.9253 41.9132 66.7266 43.4594 66.3811 45.0735C65.4034 49.6337 63.4491 53.9045 60.2548 57.5032C59.8305 57.9809 59.2339 58.267 58.6002 58.3011L58.4539 58.3043C57.7763 58.2919 57.1582 58.0117 56.7188 57.5339L56.397 57.1598L56.2394 56.9806L55.9041 56.6086L55.5365 56.2118C55.4091 56.0763 55.2763 55.9365 55.1386 55.794C53.9655 54.5777 52.6715 53.3722 51.2965 52.2628C47.4856 49.1878 43.8103 47.4516 40.671 47.64C35.5359 47.9483 31.284 47.7086 27.3388 46.6013C22.2382 45.1707 18.2336 42.3629 15.5833 37.8929L15.4348 37.6381C14.0627 35.2455 12.0362 32.489 9.64573 29.6202C8.90699 28.7332 8.17835 27.89 7.48383 27.1104L7.18832 26.78C6.71519 26.2537 6.32752 25.8342 6.16507 25.6636C5.56513 25.0314 5.35664 24.1245 5.61874 23.2953L5.65723 23.183C5.94514 22.4083 6.61477 21.8339 7.43087 21.6725L11.807 20.8076L11.8581 20.7342C13.4239 18.5084 15.6597 16.6232 18.6293 15.8636C21.5526 15.1159 24.6206 15.6876 27.7156 17.5048C31.1437 16.3554 34.0875 13.7333 36.5519 10.0488C37.7564 8.24842 38.7653 6.31304 39.5848 4.37442C39.8731 3.69205 40.1171 3.05826 40.3185 2.48656C40.3892 2.28681 40.4492 2.10865 40.4999 1.95318L40.5663 1.74263C40.8157 0.955524 41.5019 0.384899 42.3225 0.285566C43.1236 0.187312 43.874 0.56575 44.3366 1.22275C44.5936 1.58662 44.8371 1.95642 45.0676 2.33108C47.2222 5.83257 48.1394 9.42207 48.2641 12.781C48.6927 12.2396 49.1025 11.6754 49.4901 11.0924C51.494 8.07675 52.6855 4.85328 52.7703 2.30894C52.8059 1.24597 53.5395 0.333074 54.5707 0.0728645C55.6029 -0.188425 56.6826 0.268831 57.2165 1.1909ZM41.5057 18.5462C37.447 20.6678 33.1843 20.8799 28.8801 18.2325C31.778 16.8926 36.4278 14.1183 38.347 11.2495C39.6334 9.32597 40.7045 7.27183 41.5737 5.21498C41.836 4.59469 42.0644 4.01002 42.2604 3.47017L42.3554 3.20456C42.4315 2.987 42.4974 2.79211 42.5535 2.62044C42.5675 2.49735 42.5805 2.45632 42.5929 2.49681C46.7044 5.30999 47.0084 10.8932 46.9247 14.3358C45.2722 16.0995 43.4178 17.5463 41.5057 18.5462ZM42.7565 20.3984C44.403 19.5368 46.0464 18.4457 47.5758 17.1393C47.6929 17.0713 47.7971 16.9806 47.8813 16.8737C49.3929 15.5408 50.7831 13.9941 51.9427 12.2493C53.8915 9.31734 54.9685 5.43092 55.3535 2.63987L55.3815 2.42177L55.5559 2.78509C55.903 3.51821 56.2529 4.33825 56.5908 5.23549C57.3364 7.2146 57.7515 9.84531 58.1418 12.3184V12.3189C58.3119 13.3992 58.4776 14.4497 58.6644 15.4026C60.7266 25.9411 53.5077 34.6392 50.5612 38.1893C49.6634 39.2712 49.1624 39.8747 49.4415 39.9071C54.3882 40.4778 59.4574 40.3509 63.9636 39.0731L64.3528 38.9586V39.1648C64.3512 39.4418 64.3426 39.7738 64.3232 40.1544L64.314 40.3239C64.2384 41.6249 64.057 43.035 63.7417 44.5078C62.906 48.4055 61.2919 53.1309 58.7151 56.2334L58.4765 56.5147L58.0878 56.0769C58.0171 55.9986 57.9426 55.9165 57.8643 55.8312L57.4886 55.4269L57.0815 54.9998C55.8356 53.7074 52.7908 51.0238 51.7839 50.1714L50.9704 49.4863C47.1633 46.3017 44.1288 44.1407 40.5096 44.9456L40.0464 45.0449C26.3849 47.8667 19.3792 39.7149 12.8694 31.1771L10.6851 28.2992C10.4329 27.9688 10.0078 27.4295 9.40965 26.6807L7.42234 24.2119L12.8794 23.3476C13.2078 23.2828 13.4991 23.0988 13.6983 22.8326L13.7552 22.7505C14.9977 20.8054 16.3954 18.7092 19.2739 17.9906C22.1518 17.2726 24.2497 18.1429 27.0138 19.9509L27.2459 20.1004C32.5063 23.434 37.8481 22.9643 42.7565 20.3984ZM258.758 94.9313C259.819 94.4152 261.723 95.4155 260.618 97.0259C258.947 99.4634 260.804 105.123 261.935 108.57V108.571V108.571C262.459 110.165 262.827 111.286 262.618 111.396C261.957 111.741 261.142 111.485 260.796 110.825C258.927 107.248 257.853 104.407 257.585 102.247C257.452 101.173 257.423 100.134 257.498 99.1308L257.508 99.0153L248.865 103.216L248.755 103.317C246.804 105.147 245.946 107.272 247.374 111.036L247.458 111.254C249.008 115.201 251.632 118.031 254.362 117.913L254.575 117.903C260.641 117.781 264.267 115.955 265.561 113.732C267.188 110.937 267.63 107.712 264.594 101.437C264.27 100.766 262.605 96.126 264.96 98.5213C267.316 100.917 270.599 111.503 268.475 115.15C266.702 118.195 262.153 119.721 255.918 120.018C255.954 120.177 255.962 120.345 255.938 120.516C255.347 124.523 253.517 127.045 250.459 127.774C248.119 128.332 245.605 127.593 243.302 125.813C235.212 127.55 227.38 130.198 219.806 133.757L218.684 134.288C214.82 136.134 212.605 137.371 210.987 138.574C210.038 139.279 209.254 140.002 208.411 140.932L208.275 141.087C207.866 141.561 206.975 142.649 205.962 143.887L205.959 143.889L205.958 143.891L205.958 143.891L205.957 143.892L205.954 143.896L205.952 143.898C204.603 145.545 203.04 147.455 202.106 148.537L201.655 149.057C197.854 153.412 193.063 158.353 186.478 164.563L186.294 164.732C183.825 166.938 177.265 170.668 169.084 174.429C191.661 173.626 207.941 165.009 218.08 148.562C218.526 147.838 219.522 147.702 220.146 148.28C237.579 164.426 257.779 171.898 280.823 170.731C303.929 169.561 320.884 163.555 331.742 152.774C332.271 152.249 333.126 152.252 333.651 152.781C334.176 153.31 334.173 154.164 333.644 154.689C322.254 166 298.071 174.487 274.356 175.688C251.293 176.855 237.531 167.353 219.936 151.734L219.506 151.349L219.352 151.586C208.208 168.474 183.997 180.792 159.836 180.966L159.078 180.969C134.366 180.969 120.113 169.003 103.44 152.647L103.31 152.519L103.25 152.57L102.815 152.937L102.182 153.469L101.794 153.795C86.1711 166.943 74.514 176.753 56.9784 179.259L56.4191 179.337C36.648 183.337 6.66212 172.682 2.05413 167.459C-2.16791 162.673 2.7567 165.648 4.10866 166.465H4.10876C4.23228 166.539 4.32595 166.596 4.3801 166.627C17.4659 174.119 32.5538 176.972 50.6562 174.503C53.1541 174.162 55.6369 173.711 58.1035 173.15L58.0749 172.884C57.2845 165.377 57.2797 162.096 58.4188 158.33C59.9676 153.208 63.7288 149.315 70.4942 146.221L72.3573 145.397C80.7142 141.714 87.3512 138.949 94.2354 136.262L94.7397 136.066C95.5117 135.765 96.2939 135.463 97.0923 135.157L97.8746 134.858C98.1569 134.759 101.836 133.3 107.43 131.082L107.432 131.082L107.447 131.076L107.449 131.075L107.451 131.074C120.382 125.948 143.518 116.775 158.612 110.94C161.877 109.684 165.83 109.267 170.679 109.517L171.097 109.54C174.729 109.754 178.302 110.247 184.159 111.26L189.306 112.162C195.052 113.156 197.836 113.549 201.087 113.78C202.109 113.853 203.08 113.943 204.003 114.029H204.004C207.422 114.347 210.173 114.603 212.365 113.679C214.315 112.858 216.226 112.065 218.099 111.288H218.1C224.225 108.747 229.939 106.377 235.242 103.741C235.606 101.383 236.535 99.6421 237.991 98.4954C240.236 96.7268 243.416 96.6971 246.173 97.7693C246.868 98.0398 247.212 98.822 246.942 99.5163C246.855 99.7414 246.293 99.6377 245.498 99.4914C243.837 99.1848 241.156 98.6903 239.66 100.616C237.997 102.759 237.444 106.04 238.918 112.502C239.985 117.186 246.909 125.149 249.832 125.149C253.093 125.149 253.855 121.983 254.287 120.188L254.314 120.076C250.437 120.177 247.491 117.723 245.579 113.014L245.485 112.781C243.519 107.773 244.058 103.76 247.238 101.053C247.296 101.004 247.358 100.96 247.423 100.922L247.523 100.868L258.758 94.9313ZM240.812 123.372C240.675 123.207 240.54 123.038 240.407 122.864C240.356 122.81 240.308 122.756 240.266 122.705C240.143 122.556 240.017 122.404 239.888 122.25C238.842 120.993 237.63 119.537 236.681 117.438L236.543 117.132C235.021 113.722 234.84 109.891 234.933 106.733L234.947 106.366L234.867 106.406C228.577 109.519 221.735 112.642 214.34 115.775L213.413 116.167C210.247 117.5 206.293 118.442 201.283 118.119L200.896 118.092C197.472 117.848 194.593 117.439 188.556 116.391L184.049 115.601C171.342 113.401 164.984 113.057 159.745 115.017C159.745 115.017 81.6099 144.409 71.6026 148.681C65.5168 151.465 63.4518 154.085 60.935 158.33C59.6329 160.525 59.7646 166.582 59.8564 170.788V170.79C59.8715 171.495 59.8855 172.148 59.892 172.722C74.6657 169.027 88.8671 161.346 102.505 149.662C103.043 149.201 103.845 149.234 104.343 149.737C105.447 150.853 106.568 151.931 107.709 152.971L163.974 129.464C164.129 129.399 164.288 129.365 164.446 129.359C164.87 129.16 165.327 128.994 165.817 128.864C170.723 127.56 174.641 129.682 177.348 134.905L182.253 131.328C182.976 130.8 184.004 131.11 184.314 131.95C188.789 144.045 187.486 152.333 180.116 156.332C172.684 160.365 166.221 157.039 161.182 146.96C160.926 146.449 161.027 145.857 161.38 145.459C160.179 140.579 159.956 136.691 160.774 133.876L111.477 156.216C118.849 162.2 126.943 166.714 135.765 169.758C135.967 169.565 136.186 169.399 136.401 169.282C143.832 165.211 162.142 160.456 166.665 159.281C167.056 159.179 167.344 159.104 167.513 159.059C169.635 158.491 167.461 160.473 166.821 160.769L166.739 160.804L140.015 171.095C147.965 173.359 156.477 174.491 165.557 174.491C166.073 174.491 166.586 174.487 167.096 174.479L167.694 174.09H167.695L167.695 174.09L167.696 174.089C173.411 170.374 182.967 164.163 184.626 162.599L185.4 161.867C190.902 156.528 194.997 151.406 198.572 146.935C202.494 142.029 205.789 137.908 209.629 135.143C212.614 132.993 213.696 132.502 216.239 131.348C216.92 131.039 217.704 130.683 218.658 130.235C225.403 127.065 233.063 125.23 240.253 123.506L240.812 123.372ZM166.511 131.472C170.398 130.439 173.31 132.265 175.529 137.363L169.795 141.909L169.789 141.911L163.864 144.249L163.716 143.599C162.094 136.244 163.151 132.366 166.511 131.472ZM175.529 137.363L169.8 141.907C169.915 141.862 170.033 141.833 170.151 141.82C170.26 141.809 170.368 141.811 170.474 141.825C170.726 141.859 170.965 141.963 171.162 142.128C171.291 142.236 171.401 142.368 171.484 142.523C172.836 144.959 173.882 145.538 174.943 144.943C176.067 144.313 176.42 141.943 175.599 137.71L175.529 137.363ZM101.19 192.779C101.818 192.376 106.144 190.265 102.291 194.233C98.4382 198.2 68.4309 215.033 52.2331 215.965C36.621 216.863 22.7597 210.344 10.6995 201.81L10.2999 201.525L10.2202 201.628C9.68633 202.305 9.13773 202.919 8.57401 203.47L8.33151 203.703C7.31 204.662 5.54203 205.747 2.98765 207.009C2.31936 207.339 -0.042072 207.643 1.17984 206.396C2.4018 205.15 5.07624 203.356 6.63377 202.327C7.65167 201.655 7.97315 200.869 8.2921 200.089C8.46118 199.676 8.62957 199.264 8.90063 198.871C9.33602 198.242 10.2076 198.1 10.8203 198.559C22.7095 207.469 36.5978 212.22 52.2331 211.32C67.9326 210.416 84.1472 203.745 101.19 192.779ZM193.532 201.384C194.079 200.879 194.079 197.273 193.532 197.778C187.468 203.374 174.772 208.295 159.106 209.197C143.42 210.1 131.088 207.634 122.084 201.844C121.458 201.441 118.354 200.375 120.219 202.25C122.084 204.124 143.049 213.904 159.261 212.971L159.746 212.942C175.721 211.967 186.982 207.428 193.532 201.384ZM182.459 134.82L182.378 134.577L178.314 137.542L178.389 137.961C179.206 142.74 178.648 145.864 176.382 147.229L176.264 147.298C173.901 148.622 171.678 147.686 169.818 144.964L169.737 144.844L164.273 147.05L164.399 147.28C168.576 154.816 173.205 156.913 178.653 154.053L178.829 153.96C184.299 150.991 185.647 144.932 182.648 135.407L182.459 134.82ZM23.0529 24.8333C23.0529 25.8752 22.2053 26.7228 21.1634 26.7228C20.1215 26.7228 19.2739 25.8752 19.2739 24.8333C19.2739 23.7914 20.1215 22.9438 21.1634 22.9438C22.2053 22.9438 23.0529 23.7914 23.0529 24.8333Z" fill="#00160A"/>
</svg>
